<svg xmlns="http://www.w3.org/2000/svg" viewBox="0 0 64 64">
  <defs>
    <linearGradient id="g" x1="0" x2="1" y1="0" y2="1">
      <stop offset="0%" stop-color="#6366f1"/>
      <stop offset="100%" stop-color="#22d3ee"/>
    </linearGradient>
  </defs>
  <rect width="64" height="64" rx="12" fill="url(#g)"/>
  <g fill="#fff">
    <path d="M20 44c0-2.2 1.8-4 4-4h10a6 6 0 1 0 0-12H28a4 4 0 0 1 0-8h16v-4H28a8 8 0 1 0 0 16h6a2 2 0 1 1 0 4H24a8 8 0 0 0-8 8h4z"/>
  </g>
  <circle cx="50" cy="50" r="6" fill="#111827" fill-opacity=".15"/>
</svg>
